<svg width="50" height="50" viewBox="0 0 50 50" fill="none" xmlns="http://www.w3.org/2000/svg">
<path d="M41.6666 25V45.8333H8.33331V25" stroke="white" stroke-opacity="0.5" stroke-width="2" stroke-linecap="round" stroke-linejoin="round"/>
<path d="M45.8334 14.583H4.16669V24.9997H45.8334V14.583Z" stroke="white" stroke-opacity="0.5" stroke-width="2" stroke-linecap="round" stroke-linejoin="round"/>
<path d="M25 45.833V14.583" stroke="white" stroke-opacity="0.5" stroke-width="2" stroke-linecap="round" stroke-linejoin="round"/>
<path d="M25 14.5837H15.625C14.2437 14.5837 12.9189 14.0349 11.9422 13.0582C10.9654 12.0814 10.4167 10.7567 10.4167 9.37533C10.4167 7.99399 10.9654 6.66923 11.9422 5.69248C12.9189 4.71573 14.2437 4.16699 15.625 4.16699C22.9167 4.16699 25 14.5837 25 14.5837Z" stroke="white" stroke-opacity="0.5" stroke-width="2" stroke-linecap="round" stroke-linejoin="round"/>
<path d="M25 14.5837H34.375C35.7563 14.5837 37.0811 14.0349 38.0579 13.0582C39.0346 12.0814 39.5833 10.7567 39.5833 9.37533C39.5833 7.99399 39.0346 6.66923 38.0579 5.69248C37.0811 4.71573 35.7563 4.16699 34.375 4.16699C27.0833 4.16699 25 14.5837 25 14.5837Z" stroke="white" stroke-opacity="0.5" stroke-width="2" stroke-linecap="round" stroke-linejoin="round"/>
</svg>
