<svg width="243" height="58" viewBox="0 0 243 58" fill="none" xmlns="http://www.w3.org/2000/svg">
<g filter="url(#filter0_d_1_40)">
<path d="M4 0H239V37.931H127.14L124.036 50L102.7 37.931H4V0Z" fill="#F56464"/>
</g>
<path d="M15.1631 11.7588C14.5479 11.7588 13.9971 11.8701 13.5107 12.0928C13.0303 12.3154 12.623 12.6377 12.2891 13.0596C11.9551 13.4756 11.7002 13.9824 11.5244 14.5801C11.3486 15.1719 11.2607 15.8398 11.2607 16.584C11.2607 17.5801 11.4014 18.4385 11.6826 19.1592C11.9639 19.874 12.3916 20.4248 12.9658 20.8115C13.54 21.1924 14.2666 21.3828 15.1455 21.3828C15.6904 21.3828 16.2207 21.3301 16.7363 21.2246C17.252 21.1191 17.7852 20.9756 18.3359 20.7939V22.5869C17.8145 22.792 17.2871 22.9414 16.7539 23.0352C16.2207 23.1289 15.6055 23.1758 14.9082 23.1758C13.5957 23.1758 12.5059 22.9033 11.6387 22.3584C10.7773 21.8135 10.1328 21.0459 9.70508 20.0557C9.2832 19.0654 9.07227 17.9053 9.07227 16.5752C9.07227 15.6025 9.20703 14.7119 9.47656 13.9033C9.74609 13.0947 10.1387 12.3975 10.6543 11.8115C11.1699 11.2197 11.8057 10.7656 12.5615 10.4492C13.3232 10.127 14.1934 9.96582 15.1719 9.96582C15.8164 9.96582 16.4492 10.0391 17.0703 10.1855C17.6973 10.3262 18.2773 10.5283 18.8105 10.792L18.0723 12.5322C17.627 12.3213 17.1611 12.1396 16.6748 11.9873C16.1885 11.835 15.6846 11.7588 15.1631 11.7588ZM29.498 18.1133C29.498 18.9219 29.3926 19.6396 29.1816 20.2666C28.9707 20.8936 28.6631 21.4238 28.2588 21.8574C27.8545 22.2852 27.3682 22.6133 26.7998 22.8418C26.2314 23.0645 25.5898 23.1758 24.875 23.1758C24.207 23.1758 23.5947 23.0645 23.0381 22.8418C22.4814 22.6133 21.998 22.2852 21.5879 21.8574C21.1836 21.4238 20.8701 20.8936 20.6475 20.2666C20.4248 19.6396 20.3135 18.9219 20.3135 18.1133C20.3135 17.041 20.498 16.1328 20.8672 15.3887C21.2422 14.6387 21.7754 14.0674 22.4668 13.6748C23.1582 13.2822 23.9814 13.0859 24.9365 13.0859C25.833 13.0859 26.624 13.2822 27.3096 13.6748C27.9951 14.0674 28.5312 14.6387 28.918 15.3887C29.3047 16.1387 29.498 17.0469 29.498 18.1133ZM22.4404 18.1133C22.4404 18.8223 22.5254 19.4287 22.6953 19.9326C22.8711 20.4365 23.1406 20.8232 23.5039 21.0928C23.8672 21.3564 24.3359 21.4883 24.9102 21.4883C25.4844 21.4883 25.9531 21.3564 26.3164 21.0928C26.6797 20.8232 26.9463 20.4365 27.1162 19.9326C27.2861 19.4287 27.3711 18.8223 27.3711 18.1133C27.3711 17.4043 27.2861 16.8037 27.1162 16.3115C26.9463 15.8135 26.6797 15.4355 26.3164 15.1777C25.9531 14.9141 25.4814 14.7822 24.9014 14.7822C24.0459 14.7822 23.4219 15.0693 23.0293 15.6436C22.6367 16.2178 22.4404 17.041 22.4404 18.1133ZM36.9424 13.0859C38.0381 13.0859 38.8906 13.3701 39.5 13.9385C40.1152 14.501 40.4229 15.4062 40.4229 16.6543V23H38.3574V17.041C38.3574 16.2852 38.2021 15.7197 37.8916 15.3447C37.5811 14.9639 37.1006 14.7734 36.4502 14.7734C35.5068 14.7734 34.8506 15.0635 34.4814 15.6436C34.1182 16.2236 33.9365 17.0645 33.9365 18.166V23H31.8711V13.2705H33.4795L33.7695 14.5889H33.8838C34.0947 14.249 34.3555 13.9707 34.666 13.7539C34.9824 13.5312 35.334 13.3643 35.7207 13.2529C36.1133 13.1416 36.5205 13.0859 36.9424 13.0859ZM46.9355 21.5059C47.2051 21.5059 47.4717 21.4824 47.7354 21.4355C47.999 21.3828 48.2393 21.3213 48.4561 21.251V22.8154C48.2275 22.915 47.9316 23 47.5684 23.0703C47.2051 23.1406 46.8271 23.1758 46.4346 23.1758C45.8838 23.1758 45.3887 23.085 44.9492 22.9033C44.5098 22.7158 44.1611 22.3965 43.9033 21.9453C43.6455 21.4941 43.5166 20.8701 43.5166 20.0732V14.8438H42.1895V13.9209L43.6133 13.1914L44.29 11.1084H45.5908V13.2705H48.377V14.8438H45.5908V20.0469C45.5908 20.5391 45.7139 20.9053 45.96 21.1455C46.2061 21.3857 46.5312 21.5059 46.9355 21.5059ZM52.499 13.2705V23H50.4336V13.2705H52.499ZM51.4795 9.54395C51.7959 9.54395 52.0684 9.62891 52.2969 9.79883C52.5312 9.96875 52.6484 10.2617 52.6484 10.6777C52.6484 11.0879 52.5312 11.3809 52.2969 11.5566C52.0684 11.7266 51.7959 11.8115 51.4795 11.8115C51.1514 11.8115 50.873 11.7266 50.6445 11.5566C50.4219 11.3809 50.3105 11.0879 50.3105 10.6777C50.3105 10.2617 50.4219 9.96875 50.6445 9.79883C50.873 9.62891 51.1514 9.54395 51.4795 9.54395ZM60.5322 13.0859C61.6279 13.0859 62.4805 13.3701 63.0898 13.9385C63.7051 14.501 64.0127 15.4062 64.0127 16.6543V23H61.9473V17.041C61.9473 16.2852 61.792 15.7197 61.4814 15.3447C61.1709 14.9639 60.6904 14.7734 60.04 14.7734C59.0967 14.7734 58.4404 15.0635 58.0713 15.6436C57.708 16.2236 57.5264 17.0645 57.5264 18.166V23H55.4609V13.2705H57.0693L57.3594 14.5889H57.4736C57.6846 14.249 57.9453 13.9707 58.2559 13.7539C58.5723 13.5312 58.9238 13.3643 59.3105 13.2529C59.7031 13.1416 60.1104 13.0859 60.5322 13.0859ZM75.3857 13.2705V23H73.7598L73.4785 21.6904H73.3643C73.1592 22.0244 72.8984 22.3027 72.582 22.5254C72.2656 22.7422 71.9141 22.9033 71.5273 23.0088C71.1406 23.1201 70.7334 23.1758 70.3057 23.1758C69.5732 23.1758 68.9463 23.0527 68.4248 22.8066C67.9092 22.5547 67.5137 22.168 67.2383 21.6465C66.9629 21.125 66.8252 20.4512 66.8252 19.625V13.2705H68.8994V19.2383C68.8994 19.9941 69.0518 20.5596 69.3564 20.9346C69.667 21.3096 70.1475 21.4971 70.7979 21.4971C71.4248 21.4971 71.9229 21.3682 72.292 21.1104C72.6611 20.8525 72.9219 20.4717 73.0742 19.9678C73.2324 19.4639 73.3115 18.8457 73.3115 18.1133V13.2705H75.3857ZM86.9609 18.1133C86.9609 18.9219 86.8555 19.6396 86.6445 20.2666C86.4336 20.8936 86.126 21.4238 85.7217 21.8574C85.3174 22.2852 84.8311 22.6133 84.2627 22.8418C83.6943 23.0645 83.0527 23.1758 82.3379 23.1758C81.6699 23.1758 81.0576 23.0645 80.501 22.8418C79.9443 22.6133 79.4609 22.2852 79.0508 21.8574C78.6465 21.4238 78.333 20.8936 78.1104 20.2666C77.8877 19.6396 77.7764 18.9219 77.7764 18.1133C77.7764 17.041 77.9609 16.1328 78.3301 15.3887C78.7051 14.6387 79.2383 14.0674 79.9297 13.6748C80.6211 13.2822 81.4443 13.0859 82.3994 13.0859C83.2959 13.0859 84.0869 13.2822 84.7725 13.6748C85.458 14.0674 85.9941 14.6387 86.3809 15.3887C86.7676 16.1387 86.9609 17.0469 86.9609 18.1133ZM79.9033 18.1133C79.9033 18.8223 79.9883 19.4287 80.1582 19.9326C80.334 20.4365 80.6035 20.8232 80.9668 21.0928C81.3301 21.3564 81.7988 21.4883 82.373 21.4883C82.9473 21.4883 83.416 21.3564 83.7793 21.0928C84.1426 20.8232 84.4092 20.4365 84.5791 19.9326C84.749 19.4287 84.834 18.8223 84.834 18.1133C84.834 17.4043 84.749 16.8037 84.5791 16.3115C84.4092 15.8135 84.1426 15.4355 83.7793 15.1777C83.416 14.9141 82.9443 14.7822 82.3643 14.7822C81.5088 14.7822 80.8848 15.0693 80.4922 15.6436C80.0996 16.2178 79.9033 17.041 79.9033 18.1133ZM97.8154 13.2705V23H96.1895L95.9082 21.6904H95.7939C95.5889 22.0244 95.3281 22.3027 95.0117 22.5254C94.6953 22.7422 94.3438 22.9033 93.957 23.0088C93.5703 23.1201 93.1631 23.1758 92.7354 23.1758C92.0029 23.1758 91.376 23.0527 90.8545 22.8066C90.3389 22.5547 89.9434 22.168 89.668 21.6465C89.3926 21.125 89.2549 20.4512 89.2549 19.625V13.2705H91.3291V19.2383C91.3291 19.9941 91.4814 20.5596 91.7861 20.9346C92.0967 21.3096 92.5771 21.4971 93.2275 21.4971C93.8545 21.4971 94.3525 21.3682 94.7217 21.1104C95.0908 20.8525 95.3516 20.4717 95.5039 19.9678C95.6621 19.4639 95.7412 18.8457 95.7412 18.1133V13.2705H97.8154ZM107.316 20.2227C107.316 20.8613 107.161 21.4004 106.851 21.8398C106.54 22.2793 106.086 22.6133 105.488 22.8418C104.896 23.0645 104.17 23.1758 103.309 23.1758C102.629 23.1758 102.043 23.126 101.551 23.0264C101.064 22.9326 100.604 22.7861 100.171 22.5869V20.8027C100.634 21.0195 101.152 21.207 101.727 21.3652C102.307 21.5234 102.854 21.6025 103.37 21.6025C104.05 21.6025 104.539 21.4971 104.838 21.2861C105.137 21.0693 105.286 20.7822 105.286 20.4248C105.286 20.2139 105.225 20.0264 105.102 19.8623C104.984 19.6924 104.762 19.5195 104.434 19.3438C104.111 19.1621 103.637 18.9453 103.01 18.6934C102.395 18.4473 101.876 18.2012 101.454 17.9551C101.032 17.709 100.713 17.4131 100.496 17.0674C100.279 16.7158 100.171 16.2676 100.171 15.7227C100.171 14.8613 100.511 14.208 101.19 13.7627C101.876 13.3115 102.781 13.0859 103.906 13.0859C104.504 13.0859 105.066 13.1475 105.594 13.2705C106.127 13.3877 106.648 13.5605 107.158 13.7891L106.508 15.3447C106.068 15.1514 105.626 14.9932 105.181 14.8701C104.741 14.7412 104.293 14.6768 103.836 14.6768C103.303 14.6768 102.896 14.7588 102.614 14.9229C102.339 15.0869 102.201 15.3213 102.201 15.626C102.201 15.8545 102.269 16.0479 102.403 16.2061C102.538 16.3643 102.77 16.5225 103.098 16.6807C103.432 16.8389 103.895 17.0352 104.486 17.2695C105.066 17.4922 105.567 17.7266 105.989 17.9727C106.417 18.2129 106.745 18.5088 106.974 18.8604C107.202 19.2119 107.316 19.666 107.316 20.2227ZM114.436 23V10.1504H116.545V23H114.436ZM130.722 13.0859C131.812 13.0859 132.632 13.3672 133.183 13.9297C133.739 14.4922 134.018 15.3945 134.018 16.6367V23H131.952V17.0059C131.952 16.2676 131.809 15.7109 131.521 15.3359C131.234 14.9609 130.798 14.7734 130.212 14.7734C129.392 14.7734 128.8 15.0371 128.437 15.5645C128.079 16.0859 127.9 16.8447 127.9 17.8408V23H125.835V17.0059C125.835 16.5137 125.771 16.1035 125.642 15.7754C125.519 15.4414 125.328 15.1924 125.07 15.0283C124.812 14.8584 124.487 14.7734 124.095 14.7734C123.526 14.7734 123.072 14.9023 122.732 15.1602C122.398 15.418 122.158 15.7988 122.012 16.3027C121.865 16.8008 121.792 17.4131 121.792 18.1396V23H119.727V13.2705H121.335L121.625 14.5801H121.739C121.938 14.2402 122.185 13.9619 122.478 13.7451C122.776 13.5225 123.107 13.3584 123.471 13.2529C123.834 13.1416 124.212 13.0859 124.604 13.0859C125.331 13.0859 125.943 13.2148 126.441 13.4727C126.939 13.7246 127.312 14.1113 127.558 14.6328H127.716C128.021 14.1055 128.445 13.7158 128.99 13.4639C129.535 13.2119 130.112 13.0859 130.722 13.0859ZM141.893 13.0859C143.047 13.0859 143.973 13.5078 144.67 14.3516C145.373 15.1953 145.725 16.4492 145.725 18.1133C145.725 19.2148 145.561 20.1436 145.232 20.8994C144.91 21.6494 144.456 22.2178 143.87 22.6045C143.29 22.9854 142.613 23.1758 141.84 23.1758C141.348 23.1758 140.92 23.1113 140.557 22.9824C140.193 22.8535 139.883 22.6865 139.625 22.4814C139.367 22.2705 139.15 22.042 138.975 21.7959H138.852C138.881 22.0303 138.907 22.291 138.931 22.5781C138.96 22.8594 138.975 23.1172 138.975 23.3516V27.3154H136.9V13.2705H138.588L138.878 14.6152H138.975C139.156 14.3398 139.376 14.085 139.634 13.8506C139.897 13.6162 140.214 13.4316 140.583 13.2969C140.958 13.1562 141.395 13.0859 141.893 13.0859ZM141.339 14.7734C140.771 14.7734 140.313 14.8877 139.968 15.1162C139.628 15.3389 139.379 15.6758 139.221 16.127C139.068 16.5781 138.986 17.1436 138.975 17.8232V18.1133C138.975 18.834 139.048 19.4463 139.194 19.9502C139.347 20.4482 139.596 20.8291 139.941 21.0928C140.293 21.3506 140.768 21.4795 141.365 21.4795C141.869 21.4795 142.285 21.3418 142.613 21.0664C142.947 20.791 143.196 20.3984 143.36 19.8887C143.524 19.3789 143.606 18.7783 143.606 18.0869C143.606 17.0381 143.419 16.2236 143.044 15.6436C142.675 15.0635 142.106 14.7734 141.339 14.7734ZM153.046 13.0859C153.21 13.0859 153.389 13.0947 153.582 13.1123C153.775 13.1299 153.942 13.1533 154.083 13.1826L153.89 15.1162C153.767 15.0811 153.614 15.0547 153.433 15.0371C153.257 15.0195 153.099 15.0107 152.958 15.0107C152.589 15.0107 152.237 15.0723 151.903 15.1953C151.569 15.3125 151.273 15.4941 151.016 15.7402C150.758 15.9805 150.556 16.2822 150.409 16.6455C150.263 17.0088 150.189 17.4307 150.189 17.9111V23H148.115V13.2705H149.732L150.014 14.9844H150.11C150.304 14.6387 150.544 14.3223 150.831 14.0352C151.118 13.748 151.446 13.5195 151.815 13.3496C152.19 13.1738 152.601 13.0859 153.046 13.0859ZM164.498 18.1133C164.498 18.9219 164.393 19.6396 164.182 20.2666C163.971 20.8936 163.663 21.4238 163.259 21.8574C162.854 22.2852 162.368 22.6133 161.8 22.8418C161.231 23.0645 160.59 23.1758 159.875 23.1758C159.207 23.1758 158.595 23.0645 158.038 22.8418C157.481 22.6133 156.998 22.2852 156.588 21.8574C156.184 21.4238 155.87 20.8936 155.647 20.2666C155.425 19.6396 155.313 18.9219 155.313 18.1133C155.313 17.041 155.498 16.1328 155.867 15.3887C156.242 14.6387 156.775 14.0674 157.467 13.6748C158.158 13.2822 158.981 13.0859 159.937 13.0859C160.833 13.0859 161.624 13.2822 162.31 13.6748C162.995 14.0674 163.531 14.6387 163.918 15.3887C164.305 16.1387 164.498 17.0469 164.498 18.1133ZM157.44 18.1133C157.44 18.8223 157.525 19.4287 157.695 19.9326C157.871 20.4365 158.141 20.8232 158.504 21.0928C158.867 21.3564 159.336 21.4883 159.91 21.4883C160.484 21.4883 160.953 21.3564 161.316 21.0928C161.68 20.8232 161.946 20.4365 162.116 19.9326C162.286 19.4287 162.371 18.8223 162.371 18.1133C162.371 17.4043 162.286 16.8037 162.116 16.3115C161.946 15.8135 161.68 15.4355 161.316 15.1777C160.953 14.9141 160.481 14.7822 159.901 14.7822C159.046 14.7822 158.422 15.0693 158.029 15.6436C157.637 16.2178 157.44 17.041 157.44 18.1133ZM169.095 23L165.395 13.2705H167.583L169.587 18.9834C169.716 19.3467 169.833 19.7393 169.938 20.1611C170.044 20.583 170.117 20.9375 170.158 21.2246H170.229C170.27 20.9258 170.349 20.5684 170.466 20.1523C170.583 19.7305 170.703 19.3408 170.826 18.9834L172.83 13.2705H175.01L171.31 23H169.095ZM180.362 13.0859C181.229 13.0859 181.974 13.2646 182.595 13.6221C183.216 13.9795 183.693 14.4863 184.027 15.1426C184.361 15.7988 184.528 16.584 184.528 17.498V18.6055H178.033C178.057 19.5488 178.309 20.2754 178.789 20.7852C179.275 21.2949 179.955 21.5498 180.828 21.5498C181.449 21.5498 182.006 21.4912 182.498 21.374C182.996 21.251 183.509 21.0723 184.036 20.8379V22.5166C183.55 22.7451 183.055 22.9121 182.551 23.0176C182.047 23.123 181.443 23.1758 180.74 23.1758C179.785 23.1758 178.944 22.9912 178.218 22.6221C177.497 22.2471 176.932 21.6904 176.521 20.9521C176.117 20.2139 175.915 19.2969 175.915 18.2012C175.915 17.1113 176.1 16.1855 176.469 15.4238C176.838 14.6621 177.356 14.082 178.024 13.6836C178.692 13.2852 179.472 13.0859 180.362 13.0859ZM180.362 14.6416C179.712 14.6416 179.185 14.8525 178.78 15.2744C178.382 15.6963 178.147 16.3145 178.077 17.1289H182.507C182.501 16.6426 182.419 16.2119 182.261 15.8369C182.108 15.4619 181.874 15.1689 181.558 14.958C181.247 14.7471 180.849 14.6416 180.362 14.6416ZM197.853 13.0859C198.942 13.0859 199.763 13.3672 200.313 13.9297C200.87 14.4922 201.148 15.3945 201.148 16.6367V23H199.083V17.0059C199.083 16.2676 198.939 15.7109 198.652 15.3359C198.365 14.9609 197.929 14.7734 197.343 14.7734C196.522 14.7734 195.931 15.0371 195.567 15.5645C195.21 16.0859 195.031 16.8447 195.031 17.8408V23H192.966V17.0059C192.966 16.5137 192.901 16.1035 192.772 15.7754C192.649 15.4414 192.459 15.1924 192.201 15.0283C191.943 14.8584 191.618 14.7734 191.226 14.7734C190.657 14.7734 190.203 14.9023 189.863 15.1602C189.529 15.418 189.289 15.7988 189.143 16.3027C188.996 16.8008 188.923 17.4131 188.923 18.1396V23H186.857V13.2705H188.466L188.756 14.5801H188.87C189.069 14.2402 189.315 13.9619 189.608 13.7451C189.907 13.5225 190.238 13.3584 190.602 13.2529C190.965 13.1416 191.343 13.0859 191.735 13.0859C192.462 13.0859 193.074 13.2148 193.572 13.4727C194.07 13.7246 194.442 14.1113 194.688 14.6328H194.847C195.151 14.1055 195.576 13.7158 196.121 13.4639C196.666 13.2119 197.243 13.0859 197.853 13.0859ZM207.907 13.0859C208.774 13.0859 209.519 13.2646 210.14 13.6221C210.761 13.9795 211.238 14.4863 211.572 15.1426C211.906 15.7988 212.073 16.584 212.073 17.498V18.6055H205.578C205.602 19.5488 205.854 20.2754 206.334 20.7852C206.82 21.2949 207.5 21.5498 208.373 21.5498C208.994 21.5498 209.551 21.4912 210.043 21.374C210.541 21.251 211.054 21.0723 211.581 20.8379V22.5166C211.095 22.7451 210.6 22.9121 210.096 23.0176C209.592 23.123 208.988 23.1758 208.285 23.1758C207.33 23.1758 206.489 22.9912 205.763 22.6221C205.042 22.2471 204.477 21.6904 204.066 20.9521C203.662 20.2139 203.46 19.2969 203.46 18.2012C203.46 17.1113 203.645 16.1855 204.014 15.4238C204.383 14.6621 204.901 14.082 205.569 13.6836C206.237 13.2852 207.017 13.0859 207.907 13.0859ZM207.907 14.6416C207.257 14.6416 206.729 14.8525 206.325 15.2744C205.927 15.6963 205.692 16.3145 205.622 17.1289H210.052C210.046 16.6426 209.964 16.2119 209.806 15.8369C209.653 15.4619 209.419 15.1689 209.103 14.958C208.792 14.7471 208.394 14.6416 207.907 14.6416ZM219.474 13.0859C220.569 13.0859 221.422 13.3701 222.031 13.9385C222.646 14.501 222.954 15.4062 222.954 16.6543V23H220.889V17.041C220.889 16.2852 220.733 15.7197 220.423 15.3447C220.112 14.9639 219.632 14.7734 218.981 14.7734C218.038 14.7734 217.382 15.0635 217.013 15.6436C216.649 16.2236 216.468 17.0645 216.468 18.166V23H214.402V13.2705H216.011L216.301 14.5889H216.415C216.626 14.249 216.887 13.9707 217.197 13.7539C217.514 13.5312 217.865 13.3643 218.252 13.2529C218.645 13.1416 219.052 13.0859 219.474 13.0859ZM229.467 21.5059C229.736 21.5059 230.003 21.4824 230.267 21.4355C230.53 21.3828 230.771 21.3213 230.987 21.251V22.8154C230.759 22.915 230.463 23 230.1 23.0703C229.736 23.1406 229.358 23.1758 228.966 23.1758C228.415 23.1758 227.92 23.085 227.48 22.9033C227.041 22.7158 226.692 22.3965 226.435 21.9453C226.177 21.4941 226.048 20.8701 226.048 20.0732V14.8438H224.721V13.9209L226.145 13.1914L226.821 11.1084H228.122V13.2705H230.908V14.8438H228.122V20.0469C228.122 20.5391 228.245 20.9053 228.491 21.1455C228.737 21.3857 229.062 21.5059 229.467 21.5059Z" fill="black"/>
<defs>
<filter id="filter0_d_1_40" x="0" y="0" width="243" height="58" filterUnits="userSpaceOnUse" color-interpolation-filters="sRGB">
<feFlood flood-opacity="0" result="BackgroundImageFix"/>
<feColorMatrix in="SourceAlpha" type="matrix" values="0 0 0 0 0 0 0 0 0 0 0 0 0 0 0 0 0 0 127 0" result="hardAlpha"/>
<feOffset dy="4"/>
<feGaussianBlur stdDeviation="2"/>
<feComposite in2="hardAlpha" operator="out"/>
<feColorMatrix type="matrix" values="0 0 0 0 0 0 0 0 0 0 0 0 0 0 0 0 0 0 0.25 0"/>
<feBlend mode="normal" in2="BackgroundImageFix" result="effect1_dropShadow_1_40"/>
<feBlend mode="normal" in="SourceGraphic" in2="effect1_dropShadow_1_40" result="shape"/>
</filter>
</defs>
</svg>
