<svg width="217" height="58" viewBox="0 0 217 58" fill="none" xmlns="http://www.w3.org/2000/svg">
<g filter="url(#filter0_d_1_18)">
<path d="M4 0H213V37.931H118.273L110.755 50L86.6978 37.931H4V0Z" fill="#008000"/>
</g>
<path d="M19.4229 12.1504C21.0811 12.1504 22.291 12.4902 23.0527 13.1699C23.8145 13.8496 24.1953 14.8018 24.1953 16.0264C24.1953 16.583 24.1074 17.1133 23.9316 17.6172C23.7617 18.1152 23.4805 18.5576 23.0879 18.9443C22.6953 19.3252 22.1768 19.627 21.5322 19.8496C20.8936 20.0723 20.1055 20.1836 19.168 20.1836H17.7969V25H15.6875V12.1504H19.4229ZM19.2822 13.8994H17.7969V18.4258H18.9482C19.6104 18.4258 20.1729 18.3496 20.6357 18.1973C21.0986 18.0391 21.4502 17.79 21.6904 17.4502C21.9307 17.1104 22.0508 16.6621 22.0508 16.1055C22.0508 15.3613 21.8252 14.8076 21.374 14.4443C20.9287 14.0811 20.2314 13.8994 19.2822 13.8994ZM31.4814 15.0859C31.6455 15.0859 31.8242 15.0947 32.0176 15.1123C32.2109 15.1299 32.3779 15.1533 32.5186 15.1826L32.3252 17.1162C32.2021 17.0811 32.0498 17.0547 31.8682 17.0371C31.6924 17.0195 31.5342 17.0107 31.3936 17.0107C31.0244 17.0107 30.6729 17.0723 30.3389 17.1953C30.0049 17.3125 29.709 17.4941 29.4512 17.7402C29.1934 17.9805 28.9912 18.2822 28.8447 18.6455C28.6982 19.0088 28.625 19.4307 28.625 19.9111V25H26.5508V15.2705H28.168L28.4492 16.9844H28.5459C28.7393 16.6387 28.9795 16.3223 29.2666 16.0352C29.5537 15.748 29.8818 15.5195 30.251 15.3496C30.626 15.1738 31.0361 15.0859 31.4814 15.0859ZM42.9336 20.1133C42.9336 20.9219 42.8281 21.6396 42.6172 22.2666C42.4062 22.8936 42.0986 23.4238 41.6943 23.8574C41.29 24.2852 40.8037 24.6133 40.2354 24.8418C39.667 25.0645 39.0254 25.1758 38.3105 25.1758C37.6426 25.1758 37.0303 25.0645 36.4736 24.8418C35.917 24.6133 35.4336 24.2852 35.0234 23.8574C34.6191 23.4238 34.3057 22.8936 34.083 22.2666C33.8604 21.6396 33.749 20.9219 33.749 20.1133C33.749 19.041 33.9336 18.1328 34.3027 17.3887C34.6777 16.6387 35.2109 16.0674 35.9023 15.6748C36.5938 15.2822 37.417 15.0859 38.3721 15.0859C39.2686 15.0859 40.0596 15.2822 40.7451 15.6748C41.4307 16.0674 41.9668 16.6387 42.3535 17.3887C42.7402 18.1387 42.9336 19.0469 42.9336 20.1133ZM35.876 20.1133C35.876 20.8223 35.9609 21.4287 36.1309 21.9326C36.3066 22.4365 36.5762 22.8232 36.9395 23.0928C37.3027 23.3564 37.7715 23.4883 38.3457 23.4883C38.9199 23.4883 39.3887 23.3564 39.752 23.0928C40.1152 22.8232 40.3818 22.4365 40.5518 21.9326C40.7217 21.4287 40.8066 20.8223 40.8066 20.1133C40.8066 19.4043 40.7217 18.8037 40.5518 18.3115C40.3818 17.8135 40.1152 17.4355 39.752 17.1777C39.3887 16.9141 38.917 16.7822 38.3369 16.7822C37.4814 16.7822 36.8574 17.0693 36.4648 17.6436C36.0723 18.2178 35.876 19.041 35.876 20.1133ZM50.167 16.8438H47.8027V25H45.7373V16.8438H44.1465V15.8506L45.7373 15.2441V14.5674C45.7373 13.7412 45.8662 13.085 46.124 12.5986C46.3877 12.1123 46.7627 11.7637 47.249 11.5527C47.7412 11.3359 48.3271 11.2275 49.0068 11.2275C49.4521 11.2275 49.8594 11.2656 50.2285 11.3418C50.5977 11.4121 50.9082 11.4941 51.1602 11.5879L50.624 13.1523C50.4248 13.0879 50.2021 13.0293 49.9561 12.9766C49.71 12.918 49.4463 12.8887 49.165 12.8887C48.6963 12.8887 48.3506 13.0352 48.1279 13.3281C47.9111 13.6211 47.8027 14.0488 47.8027 14.6113V15.2705H50.167V16.8438ZM55.7041 15.0859C56.5713 15.0859 57.3154 15.2646 57.9365 15.6221C58.5576 15.9795 59.0352 16.4863 59.3691 17.1426C59.7031 17.7988 59.8701 18.584 59.8701 19.498V20.6055H53.375C53.3984 21.5488 53.6504 22.2754 54.1309 22.7852C54.6172 23.2949 55.2969 23.5498 56.1699 23.5498C56.791 23.5498 57.3477 23.4912 57.8398 23.374C58.3379 23.251 58.8506 23.0723 59.3779 22.8379V24.5166C58.8916 24.7451 58.3965 24.9121 57.8926 25.0176C57.3887 25.123 56.7852 25.1758 56.082 25.1758C55.127 25.1758 54.2861 24.9912 53.5596 24.6221C52.8389 24.2471 52.2734 23.6904 51.8633 22.9521C51.459 22.2139 51.2568 21.2969 51.2568 20.2012C51.2568 19.1113 51.4414 18.1855 51.8105 17.4238C52.1797 16.6621 52.6982 16.082 53.3662 15.6836C54.0342 15.2852 54.8135 15.0859 55.7041 15.0859ZM55.7041 16.6416C55.0537 16.6416 54.5264 16.8525 54.1221 17.2744C53.7236 17.6963 53.4893 18.3145 53.4189 19.1289H57.8486C57.8428 18.6426 57.7607 18.2119 57.6025 17.8369C57.4502 17.4619 57.2158 17.1689 56.8994 16.958C56.5889 16.7471 56.1904 16.6416 55.7041 16.6416ZM68.7383 22.2227C68.7383 22.8613 68.583 23.4004 68.2725 23.8398C67.9619 24.2793 67.5078 24.6133 66.9102 24.8418C66.3184 25.0645 65.5918 25.1758 64.7305 25.1758C64.0508 25.1758 63.4648 25.126 62.9727 25.0264C62.4863 24.9326 62.0264 24.7861 61.5928 24.5869V22.8027C62.0557 23.0195 62.5742 23.207 63.1484 23.3652C63.7285 23.5234 64.2764 23.6025 64.792 23.6025C65.4717 23.6025 65.9609 23.4971 66.2598 23.2861C66.5586 23.0693 66.708 22.7822 66.708 22.4248C66.708 22.2139 66.6465 22.0264 66.5234 21.8623C66.4062 21.6924 66.1836 21.5195 65.8555 21.3438C65.5332 21.1621 65.0586 20.9453 64.4316 20.6934C63.8164 20.4473 63.2979 20.2012 62.876 19.9551C62.4541 19.709 62.1348 19.4131 61.918 19.0674C61.7012 18.7158 61.5928 18.2676 61.5928 17.7227C61.5928 16.8613 61.9326 16.208 62.6123 15.7627C63.2979 15.3115 64.2031 15.0859 65.3281 15.0859C65.9258 15.0859 66.4883 15.1475 67.0156 15.2705C67.5488 15.3877 68.0703 15.5605 68.5801 15.7891L67.9297 17.3447C67.4902 17.1514 67.0479 16.9932 66.6025 16.8701C66.1631 16.7412 65.7148 16.6768 65.2578 16.6768C64.7246 16.6768 64.3174 16.7588 64.0361 16.9229C63.7607 17.0869 63.623 17.3213 63.623 17.626C63.623 17.8545 63.6904 18.0479 63.8252 18.2061C63.96 18.3643 64.1914 18.5225 64.5195 18.6807C64.8535 18.8389 65.3164 19.0352 65.9082 19.2695C66.4883 19.4922 66.9893 19.7266 67.4111 19.9727C67.8389 20.2129 68.167 20.5088 68.3955 20.8604C68.624 21.2119 68.7383 21.666 68.7383 22.2227ZM77.5098 22.2227C77.5098 22.8613 77.3545 23.4004 77.0439 23.8398C76.7334 24.2793 76.2793 24.6133 75.6816 24.8418C75.0898 25.0645 74.3633 25.1758 73.502 25.1758C72.8223 25.1758 72.2363 25.126 71.7441 25.0264C71.2578 24.9326 70.7979 24.7861 70.3643 24.5869V22.8027C70.8271 23.0195 71.3457 23.207 71.9199 23.3652C72.5 23.5234 73.0479 23.6025 73.5635 23.6025C74.2432 23.6025 74.7324 23.4971 75.0312 23.2861C75.3301 23.0693 75.4795 22.7822 75.4795 22.4248C75.4795 22.2139 75.418 22.0264 75.2949 21.8623C75.1777 21.6924 74.9551 21.5195 74.627 21.3438C74.3047 21.1621 73.8301 20.9453 73.2031 20.6934C72.5879 20.4473 72.0693 20.2012 71.6475 19.9551C71.2256 19.709 70.9062 19.4131 70.6895 19.0674C70.4727 18.7158 70.3643 18.2676 70.3643 17.7227C70.3643 16.8613 70.7041 16.208 71.3838 15.7627C72.0693 15.3115 72.9746 15.0859 74.0996 15.0859C74.6973 15.0859 75.2598 15.1475 75.7871 15.2705C76.3203 15.3877 76.8418 15.5605 77.3516 15.7891L76.7012 17.3447C76.2617 17.1514 75.8193 16.9932 75.374 16.8701C74.9346 16.7412 74.4863 16.6768 74.0293 16.6768C73.4961 16.6768 73.0889 16.7588 72.8076 16.9229C72.5322 17.0869 72.3945 17.3213 72.3945 17.626C72.3945 17.8545 72.4619 18.0479 72.5967 18.2061C72.7314 18.3643 72.9629 18.5225 73.291 18.6807C73.625 18.8389 74.0879 19.0352 74.6797 19.2695C75.2598 19.4922 75.7607 19.7266 76.1826 19.9727C76.6104 20.2129 76.9385 20.5088 77.167 20.8604C77.3955 21.2119 77.5098 21.666 77.5098 22.2227ZM81.8076 15.2705V25H79.7422V15.2705H81.8076ZM80.7881 11.5439C81.1045 11.5439 81.377 11.6289 81.6055 11.7988C81.8398 11.9688 81.957 12.2617 81.957 12.6777C81.957 13.0879 81.8398 13.3809 81.6055 13.5566C81.377 13.7266 81.1045 13.8115 80.7881 13.8115C80.46 13.8115 80.1816 13.7266 79.9531 13.5566C79.7305 13.3809 79.6191 13.0879 79.6191 12.6777C79.6191 12.2617 79.7305 11.9688 79.9531 11.7988C80.1816 11.6289 80.46 11.5439 80.7881 11.5439ZM93.3828 20.1133C93.3828 20.9219 93.2773 21.6396 93.0664 22.2666C92.8555 22.8936 92.5479 23.4238 92.1436 23.8574C91.7393 24.2852 91.2529 24.6133 90.6846 24.8418C90.1162 25.0645 89.4746 25.1758 88.7598 25.1758C88.0918 25.1758 87.4795 25.0645 86.9229 24.8418C86.3662 24.6133 85.8828 24.2852 85.4727 23.8574C85.0684 23.4238 84.7549 22.8936 84.5322 22.2666C84.3096 21.6396 84.1982 20.9219 84.1982 20.1133C84.1982 19.041 84.3828 18.1328 84.752 17.3887C85.127 16.6387 85.6602 16.0674 86.3516 15.6748C87.043 15.2822 87.8662 15.0859 88.8213 15.0859C89.7178 15.0859 90.5088 15.2822 91.1943 15.6748C91.8799 16.0674 92.416 16.6387 92.8027 17.3887C93.1895 18.1387 93.3828 19.0469 93.3828 20.1133ZM86.3252 20.1133C86.3252 20.8223 86.4102 21.4287 86.5801 21.9326C86.7559 22.4365 87.0254 22.8232 87.3887 23.0928C87.752 23.3564 88.2207 23.4883 88.7949 23.4883C89.3691 23.4883 89.8379 23.3564 90.2012 23.0928C90.5645 22.8232 90.8311 22.4365 91.001 21.9326C91.1709 21.4287 91.2559 20.8223 91.2559 20.1133C91.2559 19.4043 91.1709 18.8037 91.001 18.3115C90.8311 17.8135 90.5645 17.4355 90.2012 17.1777C89.8379 16.9141 89.3662 16.7822 88.7861 16.7822C87.9307 16.7822 87.3066 17.0693 86.9141 17.6436C86.5215 18.2178 86.3252 19.041 86.3252 20.1133ZM100.827 15.0859C101.923 15.0859 102.775 15.3701 103.385 15.9385C104 16.501 104.308 17.4062 104.308 18.6543V25H102.242V19.041C102.242 18.2852 102.087 17.7197 101.776 17.3447C101.466 16.9639 100.985 16.7734 100.335 16.7734C99.3916 16.7734 98.7354 17.0635 98.3662 17.6436C98.0029 18.2236 97.8213 19.0645 97.8213 20.166V25H95.7559V15.2705H97.3643L97.6543 16.5889H97.7686C97.9795 16.249 98.2402 15.9707 98.5508 15.7539C98.8672 15.5312 99.2188 15.3643 99.6055 15.2529C99.998 15.1416 100.405 15.0859 100.827 15.0859ZM111.014 15.0859C112.244 15.0859 113.173 15.3584 113.8 15.9033C114.433 16.4482 114.749 17.2979 114.749 18.4521V25H113.281L112.886 23.6201H112.815C112.54 23.9717 112.256 24.2617 111.963 24.4902C111.67 24.7188 111.33 24.8887 110.943 25C110.562 25.1172 110.097 25.1758 109.546 25.1758C108.966 25.1758 108.447 25.0703 107.99 24.8594C107.533 24.6426 107.173 24.3145 106.909 23.875C106.646 23.4355 106.514 22.8789 106.514 22.2051C106.514 21.2031 106.886 20.4502 107.63 19.9463C108.38 19.4424 109.511 19.1641 111.022 19.1113L112.71 19.0498V18.54C112.71 17.8662 112.552 17.3857 112.235 17.0986C111.925 16.8115 111.485 16.668 110.917 16.668C110.431 16.668 109.959 16.7383 109.502 16.8789C109.045 17.0195 108.6 17.1924 108.166 17.3975L107.498 15.9385C107.973 15.6865 108.512 15.4814 109.115 15.3232C109.725 15.165 110.357 15.0859 111.014 15.0859ZM112.701 20.3506L111.444 20.3945C110.413 20.4297 109.689 20.6055 109.273 20.9219C108.857 21.2383 108.649 21.6719 108.649 22.2227C108.649 22.7031 108.793 23.0547 109.08 23.2773C109.367 23.4941 109.745 23.6025 110.214 23.6025C110.929 23.6025 111.521 23.4004 111.989 22.9961C112.464 22.5859 112.701 21.9854 112.701 21.1943V20.3506ZM119.715 25H117.641V11.3242H119.715V25ZM129.409 15.2705V25H127.344V15.2705H129.409ZM128.39 11.5439C128.706 11.5439 128.979 11.6289 129.207 11.7988C129.441 11.9688 129.559 12.2617 129.559 12.6777C129.559 13.0879 129.441 13.3809 129.207 13.5566C128.979 13.7266 128.706 13.8115 128.39 13.8115C128.062 13.8115 127.783 13.7266 127.555 13.5566C127.332 13.3809 127.221 13.0879 127.221 12.6777C127.221 12.2617 127.332 11.9688 127.555 11.7988C127.783 11.6289 128.062 11.5439 128.39 11.5439ZM137.442 15.0859C138.538 15.0859 139.391 15.3701 140 15.9385C140.615 16.501 140.923 17.4062 140.923 18.6543V25H138.857V19.041C138.857 18.2852 138.702 17.7197 138.392 17.3447C138.081 16.9639 137.601 16.7734 136.95 16.7734C136.007 16.7734 135.351 17.0635 134.981 17.6436C134.618 18.2236 134.437 19.0645 134.437 20.166V25H132.371V15.2705H133.979L134.27 16.5889H134.384C134.595 16.249 134.855 15.9707 135.166 15.7539C135.482 15.5312 135.834 15.3643 136.221 15.2529C136.613 15.1416 137.021 15.0859 137.442 15.0859ZM147.436 23.5059C147.705 23.5059 147.972 23.4824 148.235 23.4355C148.499 23.3828 148.739 23.3213 148.956 23.251V24.8154C148.728 24.915 148.432 25 148.068 25.0703C147.705 25.1406 147.327 25.1758 146.935 25.1758C146.384 25.1758 145.889 25.085 145.449 24.9033C145.01 24.7158 144.661 24.3965 144.403 23.9453C144.146 23.4941 144.017 22.8701 144.017 22.0732V16.8438H142.689V15.9209L144.113 15.1914L144.79 13.1084H146.091V15.2705H148.877V16.8438H146.091V22.0469C146.091 22.5391 146.214 22.9053 146.46 23.1455C146.706 23.3857 147.031 23.5059 147.436 23.5059ZM154.81 15.0859C155.677 15.0859 156.421 15.2646 157.042 15.6221C157.663 15.9795 158.141 16.4863 158.475 17.1426C158.809 17.7988 158.976 18.584 158.976 19.498V20.6055H152.48C152.504 21.5488 152.756 22.2754 153.236 22.7852C153.723 23.2949 154.402 23.5498 155.275 23.5498C155.896 23.5498 156.453 23.4912 156.945 23.374C157.443 23.251 157.956 23.0723 158.483 22.8379V24.5166C157.997 24.7451 157.502 24.9121 156.998 25.0176C156.494 25.123 155.891 25.1758 155.188 25.1758C154.232 25.1758 153.392 24.9912 152.665 24.6221C151.944 24.2471 151.379 23.6904 150.969 22.9521C150.564 22.2139 150.362 21.2969 150.362 20.2012C150.362 19.1113 150.547 18.1855 150.916 17.4238C151.285 16.6621 151.804 16.082 152.472 15.6836C153.14 15.2852 153.919 15.0859 154.81 15.0859ZM154.81 16.6416C154.159 16.6416 153.632 16.8525 153.228 17.2744C152.829 17.6963 152.595 18.3145 152.524 19.1289H156.954C156.948 18.6426 156.866 18.2119 156.708 17.8369C156.556 17.4619 156.321 17.1689 156.005 16.958C155.694 16.7471 155.296 16.6416 154.81 16.6416ZM164.082 29.3242C162.764 29.3242 161.753 29.0869 161.05 28.6123C160.347 28.1377 159.995 27.4727 159.995 26.6172C159.995 26.0195 160.183 25.5127 160.558 25.0967C160.933 24.6865 161.469 24.4023 162.166 24.2441C161.902 24.127 161.674 23.9453 161.48 23.6992C161.293 23.4473 161.199 23.1689 161.199 22.8643C161.199 22.501 161.302 22.1904 161.507 21.9326C161.712 21.6748 162.02 21.4258 162.43 21.1855C161.92 20.9688 161.51 20.6172 161.199 20.1309C160.895 19.6387 160.742 19.0615 160.742 18.3994C160.742 17.6963 160.892 17.0986 161.19 16.6064C161.489 16.1084 161.926 15.7305 162.5 15.4727C163.074 15.209 163.769 15.0771 164.583 15.0771C164.759 15.0771 164.949 15.0889 165.154 15.1123C165.365 15.1299 165.559 15.1533 165.734 15.1826C165.916 15.2061 166.054 15.2324 166.147 15.2617H169.514V16.4131L167.861 16.7207C168.02 16.9434 168.146 17.1982 168.239 17.4854C168.333 17.7666 168.38 18.0742 168.38 18.4082C168.38 19.416 168.031 20.21 167.334 20.79C166.643 21.3643 165.688 21.6514 164.469 21.6514C164.176 21.6396 163.892 21.6162 163.616 21.5811C163.405 21.71 163.244 21.8535 163.133 22.0117C163.021 22.1641 162.966 22.3369 162.966 22.5303C162.966 22.6885 163.021 22.8174 163.133 22.917C163.244 23.0107 163.408 23.0811 163.625 23.1279C163.848 23.1748 164.117 23.1982 164.434 23.1982H166.112C167.179 23.1982 167.993 23.4238 168.556 23.875C169.118 24.3262 169.399 24.9883 169.399 25.8613C169.399 26.9688 168.942 27.8213 168.028 28.4189C167.114 29.0225 165.799 29.3242 164.082 29.3242ZM164.161 27.874C164.882 27.874 165.488 27.8037 165.98 27.6631C166.473 27.5225 166.845 27.3203 167.097 27.0566C167.349 26.7988 167.475 26.4912 167.475 26.1338C167.475 25.8174 167.396 25.5742 167.237 25.4043C167.079 25.2344 166.842 25.1172 166.525 25.0527C166.209 24.9883 165.816 24.9561 165.348 24.9561H163.818C163.438 24.9561 163.101 25.0146 162.808 25.1318C162.515 25.2549 162.286 25.4307 162.122 25.6592C161.964 25.8877 161.885 26.1631 161.885 26.4854C161.885 26.9307 162.081 27.2734 162.474 27.5137C162.872 27.7539 163.435 27.874 164.161 27.874ZM164.565 20.2979C165.169 20.2979 165.617 20.1338 165.91 19.8057C166.203 19.4717 166.35 19.0029 166.35 18.3994C166.35 17.7432 166.197 17.251 165.893 16.9229C165.594 16.5947 165.148 16.4307 164.557 16.4307C163.977 16.4307 163.534 16.5977 163.229 16.9316C162.931 17.2656 162.781 17.7607 162.781 18.417C162.781 19.0088 162.931 19.4717 163.229 19.8057C163.534 20.1338 163.979 20.2979 164.565 20.2979ZM176.22 15.0859C176.384 15.0859 176.562 15.0947 176.756 15.1123C176.949 15.1299 177.116 15.1533 177.257 15.1826L177.063 17.1162C176.94 17.0811 176.788 17.0547 176.606 17.0371C176.431 17.0195 176.272 17.0107 176.132 17.0107C175.763 17.0107 175.411 17.0723 175.077 17.1953C174.743 17.3125 174.447 17.4941 174.189 17.7402C173.932 17.9805 173.729 18.2822 173.583 18.6455C173.437 19.0088 173.363 19.4307 173.363 19.9111V25H171.289V15.2705H172.906L173.188 16.9844H173.284C173.478 16.6387 173.718 16.3223 174.005 16.0352C174.292 15.748 174.62 15.5195 174.989 15.3496C175.364 15.1738 175.774 15.0859 176.22 15.0859ZM181.124 15.2705V25H179.059V15.2705H181.124ZM180.104 11.5439C180.421 11.5439 180.693 11.6289 180.922 11.7988C181.156 11.9688 181.273 12.2617 181.273 12.6777C181.273 13.0879 181.156 13.3809 180.922 13.5566C180.693 13.7266 180.421 13.8115 180.104 13.8115C179.776 13.8115 179.498 13.7266 179.27 13.5566C179.047 13.3809 178.936 13.0879 178.936 12.6777C178.936 12.2617 179.047 11.9688 179.27 11.7988C179.498 11.6289 179.776 11.5439 180.104 11.5439ZM187.707 23.5059C187.977 23.5059 188.243 23.4824 188.507 23.4355C188.771 23.3828 189.011 23.3213 189.228 23.251V24.8154C188.999 24.915 188.703 25 188.34 25.0703C187.977 25.1406 187.599 25.1758 187.206 25.1758C186.655 25.1758 186.16 25.085 185.721 24.9033C185.281 24.7158 184.933 24.3965 184.675 23.9453C184.417 23.4941 184.288 22.8701 184.288 22.0732V16.8438H182.961V15.9209L184.385 15.1914L185.062 13.1084H186.362V15.2705H189.148V16.8438H186.362V22.0469C186.362 22.5391 186.485 22.9053 186.731 23.1455C186.978 23.3857 187.303 23.5059 187.707 23.5059ZM189.737 15.2705H191.987L193.982 20.8252C194.07 21.0771 194.149 21.3262 194.22 21.5723C194.296 21.8125 194.36 22.0498 194.413 22.2842C194.472 22.5186 194.519 22.7529 194.554 22.9873H194.606C194.665 22.6826 194.747 22.3428 194.853 21.9678C194.964 21.5869 195.087 21.2061 195.222 20.8252L197.138 15.2705H199.361L195.187 26.3359C194.946 26.9688 194.65 27.5078 194.299 27.9531C193.953 28.4043 193.543 28.7441 193.068 28.9727C192.594 29.207 192.052 29.3242 191.442 29.3242C191.149 29.3242 190.895 29.3066 190.678 29.2715C190.461 29.2422 190.276 29.21 190.124 29.1748V27.5225C190.247 27.5518 190.402 27.5781 190.59 27.6016C190.777 27.625 190.971 27.6367 191.17 27.6367C191.539 27.6367 191.858 27.5635 192.128 27.417C192.397 27.2705 192.626 27.0625 192.813 26.793C193.001 26.5293 193.156 26.2275 193.279 25.8877L193.622 24.9736L189.737 15.2705Z" fill="white"/>
<defs>
<filter id="filter0_d_1_18" x="0" y="0" width="217" height="58" filterUnits="userSpaceOnUse" color-interpolation-filters="sRGB">
<feFlood flood-opacity="0" result="BackgroundImageFix"/>
<feColorMatrix in="SourceAlpha" type="matrix" values="0 0 0 0 0 0 0 0 0 0 0 0 0 0 0 0 0 0 127 0" result="hardAlpha"/>
<feOffset dy="4"/>
<feGaussianBlur stdDeviation="2"/>
<feComposite in2="hardAlpha" operator="out"/>
<feColorMatrix type="matrix" values="0 0 0 0 0 0 0 0 0 0 0 0 0 0 0 0 0 0 0.25 0"/>
<feBlend mode="normal" in2="BackgroundImageFix" result="effect1_dropShadow_1_18"/>
<feBlend mode="normal" in="SourceGraphic" in2="effect1_dropShadow_1_18" result="shape"/>
</filter>
</defs>
</svg>
