<svg width="34" height="34" viewBox="0 0 34 34" fill="none" xmlns="http://www.w3.org/2000/svg">
<rect width="34" height="34" fill="white"/>
<g clip-path="url(#clip0_6_365)">
<path d="M23.1199 15.64C23.1199 20.4 16.9999 24.48 16.9999 24.48C16.9999 24.48 10.8799 20.4 10.8799 15.64C10.8799 14.0169 11.5247 12.4602 12.6724 11.3125C13.8201 10.1648 15.3768 9.52002 16.9999 9.52002C18.623 9.52002 20.1797 10.1648 21.3274 11.3125C22.4751 12.4602 23.1199 14.0169 23.1199 15.64Z" stroke="#008000" stroke-width="1.24" stroke-linecap="round" stroke-linejoin="round"/>
<path d="M17 17.6796C18.1266 17.6796 19.04 16.7663 19.04 15.6396C19.04 14.5129 18.1266 13.5996 17 13.5996C15.8733 13.5996 14.96 14.5129 14.96 15.6396C14.96 16.7663 15.8733 17.6796 17 17.6796Z" stroke="#008000" stroke-width="1.24" stroke-linecap="round" stroke-linejoin="round"/>
</g>
<defs>
<clipPath id="clip0_6_365">
<rect width="16.32" height="16.32" fill="white" transform="translate(8.83984 8.83984)"/>
</clipPath>
</defs>
</svg>
