<svg width="208" height="58" viewBox="0 0 208 58" fill="none" xmlns="http://www.w3.org/2000/svg">
<g filter="url(#filter0_d_1_23)">
<path d="M4 0H204V37.931H108.8L106.158 50L88 37.931H4V0Z" fill="black"/>
</g>
<path d="M71.0957 17.5576C71.0957 18.5479 70.9697 19.4502 70.7178 20.2646C70.4717 21.0732 70.0996 21.7705 69.6016 22.3564C69.1035 22.9365 68.4795 23.3848 67.7295 23.7012C66.9795 24.0176 66.1006 24.1758 65.0928 24.1758C64.0674 24.1758 63.1768 24.0176 62.4209 23.7012C61.6709 23.3848 61.0469 22.9336 60.5488 22.3477C60.0566 21.7617 59.6875 21.0615 59.4414 20.2471C59.1953 19.4326 59.0723 18.5303 59.0723 17.54C59.0723 16.2158 59.2891 15.0615 59.7227 14.0771C60.1621 13.0869 60.8271 12.3193 61.7178 11.7744C62.6143 11.2236 63.7451 10.9482 65.1104 10.9482C66.4463 10.9482 67.5566 11.2207 68.4414 11.7656C69.3262 12.3105 69.9883 13.0781 70.4277 14.0684C70.873 15.0527 71.0957 16.2158 71.0957 17.5576ZM61.2871 17.5576C61.2871 18.5479 61.4219 19.4062 61.6914 20.1328C61.9609 20.8535 62.374 21.4102 62.9307 21.8027C63.4932 22.1895 64.2139 22.3828 65.0928 22.3828C65.9775 22.3828 66.6982 22.1895 67.2549 21.8027C67.8115 21.4102 68.2217 20.8535 68.4854 20.1328C68.749 19.4062 68.8809 18.5479 68.8809 17.5576C68.8809 16.0518 68.5791 14.874 67.9756 14.0244C67.3779 13.1689 66.4229 12.7412 65.1104 12.7412C64.2314 12.7412 63.5078 12.9346 62.9395 13.3213C62.377 13.708 61.9609 14.2617 61.6914 14.9824C61.4219 15.6973 61.2871 16.5557 61.2871 17.5576ZM78.6367 14.0859C79.791 14.0859 80.7168 14.5078 81.4141 15.3516C82.1172 16.1953 82.4688 17.4492 82.4688 19.1133C82.4688 20.2148 82.3047 21.1436 81.9766 21.8994C81.6543 22.6494 81.2002 23.2178 80.6143 23.6045C80.0342 23.9854 79.3574 24.1758 78.584 24.1758C78.0918 24.1758 77.6641 24.1113 77.3008 23.9824C76.9375 23.8535 76.627 23.6865 76.3691 23.4814C76.1113 23.2705 75.8945 23.042 75.7188 22.7959H75.5957C75.625 23.0303 75.6514 23.291 75.6748 23.5781C75.7041 23.8594 75.7188 24.1172 75.7188 24.3516V28.3154H73.6445V14.2705H75.332L75.6221 15.6152H75.7188C75.9004 15.3398 76.1201 15.085 76.3779 14.8506C76.6416 14.6162 76.958 14.4316 77.3271 14.2969C77.7021 14.1562 78.1387 14.0859 78.6367 14.0859ZM78.083 15.7734C77.5146 15.7734 77.0576 15.8877 76.7119 16.1162C76.3721 16.3389 76.123 16.6758 75.9648 17.127C75.8125 17.5781 75.7305 18.1436 75.7188 18.8232V19.1133C75.7188 19.834 75.792 20.4463 75.9385 20.9502C76.0908 21.4482 76.3398 21.8291 76.6855 22.0928C77.0371 22.3506 77.5117 22.4795 78.1094 22.4795C78.6133 22.4795 79.0293 22.3418 79.3574 22.0664C79.6914 21.791 79.9404 21.3984 80.1045 20.8887C80.2686 20.3789 80.3506 19.7783 80.3506 19.0869C80.3506 18.0381 80.1631 17.2236 79.7881 16.6436C79.4189 16.0635 78.8506 15.7734 78.083 15.7734ZM88.7354 14.0859C89.6025 14.0859 90.3467 14.2646 90.9678 14.6221C91.5889 14.9795 92.0664 15.4863 92.4004 16.1426C92.7344 16.7988 92.9014 17.584 92.9014 18.498V19.6055H86.4062C86.4297 20.5488 86.6816 21.2754 87.1621 21.7852C87.6484 22.2949 88.3281 22.5498 89.2012 22.5498C89.8223 22.5498 90.3789 22.4912 90.8711 22.374C91.3691 22.251 91.8818 22.0723 92.4092 21.8379V23.5166C91.9229 23.7451 91.4277 23.9121 90.9238 24.0176C90.4199 24.123 89.8164 24.1758 89.1133 24.1758C88.1582 24.1758 87.3174 23.9912 86.5908 23.6221C85.8701 23.2471 85.3047 22.6904 84.8945 21.9521C84.4902 21.2139 84.2881 20.2969 84.2881 19.2012C84.2881 18.1113 84.4727 17.1855 84.8418 16.4238C85.2109 15.6621 85.7295 15.082 86.3975 14.6836C87.0654 14.2852 87.8447 14.0859 88.7354 14.0859ZM88.7354 15.6416C88.085 15.6416 87.5576 15.8525 87.1533 16.2744C86.7549 16.6963 86.5205 17.3145 86.4502 18.1289H90.8799C90.874 17.6426 90.792 17.2119 90.6338 16.8369C90.4814 16.4619 90.2471 16.1689 89.9307 15.958C89.6201 15.7471 89.2217 15.6416 88.7354 15.6416ZM100.302 14.0859C101.397 14.0859 102.25 14.3701 102.859 14.9385C103.475 15.501 103.782 16.4062 103.782 17.6543V24H101.717V18.041C101.717 17.2852 101.562 16.7197 101.251 16.3447C100.94 15.9639 100.46 15.7734 99.8096 15.7734C98.8662 15.7734 98.21 16.0635 97.8408 16.6436C97.4775 17.2236 97.2959 18.0645 97.2959 19.166V24H95.2305V14.2705H96.8389L97.1289 15.5889H97.2432C97.4541 15.249 97.7148 14.9707 98.0254 14.7539C98.3418 14.5312 98.6934 14.3643 99.0801 14.2529C99.4727 14.1416 99.8799 14.0859 100.302 14.0859ZM111.745 14.0859C112.841 14.0859 113.693 14.3701 114.303 14.9385C114.918 15.501 115.226 16.4062 115.226 17.6543V24H113.16V18.041C113.16 17.2852 113.005 16.7197 112.694 16.3447C112.384 15.9639 111.903 15.7734 111.253 15.7734C110.31 15.7734 109.653 16.0635 109.284 16.6436C108.921 17.2236 108.739 18.0645 108.739 19.166V24H106.674V14.2705H108.282L108.572 15.5889H108.687C108.897 15.249 109.158 14.9707 109.469 14.7539C109.785 14.5312 110.137 14.3643 110.523 14.2529C110.916 14.1416 111.323 14.0859 111.745 14.0859ZM121.993 14.0859C122.86 14.0859 123.604 14.2646 124.226 14.6221C124.847 14.9795 125.324 15.4863 125.658 16.1426C125.992 16.7988 126.159 17.584 126.159 18.498V19.6055H119.664C119.688 20.5488 119.939 21.2754 120.42 21.7852C120.906 22.2949 121.586 22.5498 122.459 22.5498C123.08 22.5498 123.637 22.4912 124.129 22.374C124.627 22.251 125.14 22.0723 125.667 21.8379V23.5166C125.181 23.7451 124.686 23.9121 124.182 24.0176C123.678 24.123 123.074 24.1758 122.371 24.1758C121.416 24.1758 120.575 23.9912 119.849 23.6221C119.128 23.2471 118.562 22.6904 118.152 21.9521C117.748 21.2139 117.546 20.2969 117.546 19.2012C117.546 18.1113 117.73 17.1855 118.1 16.4238C118.469 15.6621 118.987 15.082 119.655 14.6836C120.323 14.2852 121.103 14.0859 121.993 14.0859ZM121.993 15.6416C121.343 15.6416 120.815 15.8525 120.411 16.2744C120.013 16.6963 119.778 17.3145 119.708 18.1289H124.138C124.132 17.6426 124.05 17.2119 123.892 16.8369C123.739 16.4619 123.505 16.1689 123.188 15.958C122.878 15.7471 122.479 15.6416 121.993 15.6416ZM135.027 21.2227C135.027 21.8613 134.872 22.4004 134.562 22.8398C134.251 23.2793 133.797 23.6133 133.199 23.8418C132.607 24.0645 131.881 24.1758 131.02 24.1758C130.34 24.1758 129.754 24.126 129.262 24.0264C128.775 23.9326 128.315 23.7861 127.882 23.5869V21.8027C128.345 22.0195 128.863 22.207 129.438 22.3652C130.018 22.5234 130.565 22.6025 131.081 22.6025C131.761 22.6025 132.25 22.4971 132.549 22.2861C132.848 22.0693 132.997 21.7822 132.997 21.4248C132.997 21.2139 132.936 21.0264 132.812 20.8623C132.695 20.6924 132.473 20.5195 132.145 20.3438C131.822 20.1621 131.348 19.9453 130.721 19.6934C130.105 19.4473 129.587 19.2012 129.165 18.9551C128.743 18.709 128.424 18.4131 128.207 18.0674C127.99 17.7158 127.882 17.2676 127.882 16.7227C127.882 15.8613 128.222 15.208 128.901 14.7627C129.587 14.3115 130.492 14.0859 131.617 14.0859C132.215 14.0859 132.777 14.1475 133.305 14.2705C133.838 14.3877 134.359 14.5605 134.869 14.7891L134.219 16.3447C133.779 16.1514 133.337 15.9932 132.892 15.8701C132.452 15.7412 132.004 15.6768 131.547 15.6768C131.014 15.6768 130.606 15.7588 130.325 15.9229C130.05 16.0869 129.912 16.3213 129.912 16.626C129.912 16.8545 129.979 17.0479 130.114 17.2061C130.249 17.3643 130.48 17.5225 130.809 17.6807C131.143 17.8389 131.605 18.0352 132.197 18.2695C132.777 18.4922 133.278 18.7266 133.7 18.9727C134.128 19.2129 134.456 19.5088 134.685 19.8604C134.913 20.2119 135.027 20.666 135.027 21.2227ZM143.799 21.2227C143.799 21.8613 143.644 22.4004 143.333 22.8398C143.022 23.2793 142.568 23.6133 141.971 23.8418C141.379 24.0645 140.652 24.1758 139.791 24.1758C139.111 24.1758 138.525 24.126 138.033 24.0264C137.547 23.9326 137.087 23.7861 136.653 23.5869V21.8027C137.116 22.0195 137.635 22.207 138.209 22.3652C138.789 22.5234 139.337 22.6025 139.853 22.6025C140.532 22.6025 141.021 22.4971 141.32 22.2861C141.619 22.0693 141.769 21.7822 141.769 21.4248C141.769 21.2139 141.707 21.0264 141.584 20.8623C141.467 20.6924 141.244 20.5195 140.916 20.3438C140.594 20.1621 140.119 19.9453 139.492 19.6934C138.877 19.4473 138.358 19.2012 137.937 18.9551C137.515 18.709 137.195 18.4131 136.979 18.0674C136.762 17.7158 136.653 17.2676 136.653 16.7227C136.653 15.8613 136.993 15.208 137.673 14.7627C138.358 14.3115 139.264 14.0859 140.389 14.0859C140.986 14.0859 141.549 14.1475 142.076 14.2705C142.609 14.3877 143.131 14.5605 143.641 14.7891L142.99 16.3447C142.551 16.1514 142.108 15.9932 141.663 15.8701C141.224 15.7412 140.775 15.6768 140.318 15.6768C139.785 15.6768 139.378 15.7588 139.097 15.9229C138.821 16.0869 138.684 16.3213 138.684 16.626C138.684 16.8545 138.751 17.0479 138.886 17.2061C139.021 17.3643 139.252 17.5225 139.58 17.6807C139.914 17.8389 140.377 18.0352 140.969 18.2695C141.549 18.4922 142.05 18.7266 142.472 18.9727C142.899 19.2129 143.228 19.5088 143.456 19.8604C143.685 20.2119 143.799 20.666 143.799 21.2227Z" fill="#F56464"/>
<defs>
<filter id="filter0_d_1_23" x="0" y="0" width="208" height="58" filterUnits="userSpaceOnUse" color-interpolation-filters="sRGB">
<feFlood flood-opacity="0" result="BackgroundImageFix"/>
<feColorMatrix in="SourceAlpha" type="matrix" values="0 0 0 0 0 0 0 0 0 0 0 0 0 0 0 0 0 0 127 0" result="hardAlpha"/>
<feOffset dy="4"/>
<feGaussianBlur stdDeviation="2"/>
<feComposite in2="hardAlpha" operator="out"/>
<feColorMatrix type="matrix" values="0 0 0 0 0 0 0 0 0 0 0 0 0 0 0 0 0 0 0.25 0"/>
<feBlend mode="normal" in2="BackgroundImageFix" result="effect1_dropShadow_1_23"/>
<feBlend mode="normal" in="SourceGraphic" in2="effect1_dropShadow_1_23" result="shape"/>
</filter>
</defs>
</svg>
