<svg width="34" height="34" viewBox="0 0 34 34" fill="none" xmlns="http://www.w3.org/2000/svg">
<rect width="34" height="34" fill="white"/>
<path d="M23.7998 20.3454V22.3854C23.8006 22.5748 23.7618 22.7622 23.6859 22.9357C23.61 23.1092 23.4988 23.265 23.3592 23.393C23.2197 23.5211 23.0549 23.6185 22.8755 23.6792C22.6961 23.7399 22.506 23.7624 22.3174 23.7454C20.2249 23.518 18.215 22.803 16.449 21.6578C14.806 20.6137 13.413 19.2208 12.369 17.5778C11.2198 15.8038 10.5046 13.784 10.2814 11.6822C10.2644 11.4941 10.2868 11.3046 10.347 11.1257C10.4073 10.9467 10.5041 10.7823 10.6314 10.6429C10.7587 10.5034 10.9137 10.392 11.0864 10.3157C11.2591 10.2394 11.4458 10.2 11.6346 10.1998H13.6746C14.0046 10.1965 14.3245 10.3134 14.5748 10.5286C14.825 10.7438 14.9884 11.0426 15.0346 11.3694C15.1207 12.0222 15.2804 12.6632 15.5106 13.2802C15.6021 13.5236 15.6219 13.7881 15.5677 14.0424C15.5134 14.2967 15.3874 14.5301 15.2046 14.715L14.341 15.5786C15.309 17.281 16.7186 18.6906 18.421 19.6586L19.2846 18.795C19.4695 18.6121 19.7029 18.4861 19.9572 18.4319C20.2115 18.3777 20.476 18.3975 20.7194 18.489C21.3363 18.7192 21.9774 18.8789 22.6302 18.965C22.9605 19.0116 23.2622 19.178 23.4778 19.4325C23.6935 19.687 23.8081 20.0119 23.7998 20.3454Z" stroke="#008000" stroke-width="2" stroke-linecap="round" stroke-linejoin="round"/>
</svg>
