<svg width="206" height="58" viewBox="0 0 206 58" fill="none" xmlns="http://www.w3.org/2000/svg">
<g filter="url(#filter0_d_1_32)">
<path d="M4 0H202V37.931H107.752L105.137 50L87.16 37.931H4V0Z" fill="white"/>
</g>
<path d="M47.2998 12.1504C48.4072 12.1504 49.3213 12.2852 50.042 12.5547C50.7686 12.8242 51.3076 13.2344 51.6592 13.7852C52.0166 14.3359 52.1953 15.0361 52.1953 15.8857C52.1953 16.5186 52.0781 17.0576 51.8438 17.5029C51.6094 17.9482 51.3018 18.3174 50.9209 18.6104C50.54 18.9033 50.1328 19.1377 49.6992 19.3135L53.3467 25H50.9648L47.8623 19.8496H45.7969V25H43.6875V12.1504H47.2998ZM47.1592 13.9082H45.7969V18.1094H47.2559C48.2344 18.1094 48.9434 17.9277 49.3828 17.5645C49.8281 17.2012 50.0508 16.665 50.0508 15.9561C50.0508 15.2119 49.8135 14.6846 49.3389 14.374C48.8701 14.0635 48.1436 13.9082 47.1592 13.9082ZM58.8486 15.0859C59.7158 15.0859 60.46 15.2646 61.0811 15.6221C61.7021 15.9795 62.1797 16.4863 62.5137 17.1426C62.8477 17.7988 63.0146 18.584 63.0146 19.498V20.6055H56.5195C56.543 21.5488 56.7949 22.2754 57.2754 22.7852C57.7617 23.2949 58.4414 23.5498 59.3145 23.5498C59.9355 23.5498 60.4922 23.4912 60.9844 23.374C61.4824 23.251 61.9951 23.0723 62.5225 22.8379V24.5166C62.0361 24.7451 61.541 24.9121 61.0371 25.0176C60.5332 25.123 59.9297 25.1758 59.2266 25.1758C58.2715 25.1758 57.4307 24.9912 56.7041 24.6221C55.9834 24.2471 55.418 23.6904 55.0078 22.9521C54.6035 22.2139 54.4014 21.2969 54.4014 20.2012C54.4014 19.1113 54.5859 18.1855 54.9551 17.4238C55.3242 16.6621 55.8428 16.082 56.5107 15.6836C57.1787 15.2852 57.958 15.0859 58.8486 15.0859ZM58.8486 16.6416C58.1982 16.6416 57.6709 16.8525 57.2666 17.2744C56.8682 17.6963 56.6338 18.3145 56.5635 19.1289H60.9932C60.9873 18.6426 60.9053 18.2119 60.7471 17.8369C60.5947 17.4619 60.3604 17.1689 60.0439 16.958C59.7334 16.7471 59.335 16.6416 58.8486 16.6416ZM71.8828 22.2227C71.8828 22.8613 71.7275 23.4004 71.417 23.8398C71.1064 24.2793 70.6523 24.6133 70.0547 24.8418C69.4629 25.0645 68.7363 25.1758 67.875 25.1758C67.1953 25.1758 66.6094 25.126 66.1172 25.0264C65.6309 24.9326 65.1709 24.7861 64.7373 24.5869V22.8027C65.2002 23.0195 65.7188 23.207 66.293 23.3652C66.873 23.5234 67.4209 23.6025 67.9365 23.6025C68.6162 23.6025 69.1055 23.4971 69.4043 23.2861C69.7031 23.0693 69.8525 22.7822 69.8525 22.4248C69.8525 22.2139 69.791 22.0264 69.668 21.8623C69.5508 21.6924 69.3281 21.5195 69 21.3438C68.6777 21.1621 68.2031 20.9453 67.5762 20.6934C66.9609 20.4473 66.4424 20.2012 66.0205 19.9551C65.5986 19.709 65.2793 19.4131 65.0625 19.0674C64.8457 18.7158 64.7373 18.2676 64.7373 17.7227C64.7373 16.8613 65.0771 16.208 65.7568 15.7627C66.4424 15.3115 67.3477 15.0859 68.4727 15.0859C69.0703 15.0859 69.6328 15.1475 70.1602 15.2705C70.6934 15.3877 71.2148 15.5605 71.7246 15.7891L71.0742 17.3447C70.6348 17.1514 70.1924 16.9932 69.7471 16.8701C69.3076 16.7412 68.8594 16.6768 68.4023 16.6768C67.8691 16.6768 67.4619 16.7588 67.1807 16.9229C66.9053 17.0869 66.7676 17.3213 66.7676 17.626C66.7676 17.8545 66.835 18.0479 66.9697 18.2061C67.1045 18.3643 67.3359 18.5225 67.6641 18.6807C67.998 18.8389 68.4609 19.0352 69.0527 19.2695C69.6328 19.4922 70.1338 19.7266 70.5557 19.9727C70.9834 20.2129 71.3115 20.5088 71.54 20.8604C71.7686 21.2119 71.8828 21.666 71.8828 22.2227ZM79.1074 15.0859C80.2617 15.0859 81.1875 15.5078 81.8848 16.3516C82.5879 17.1953 82.9395 18.4492 82.9395 20.1133C82.9395 21.2148 82.7754 22.1436 82.4473 22.8994C82.125 23.6494 81.6709 24.2178 81.085 24.6045C80.5049 24.9854 79.8281 25.1758 79.0547 25.1758C78.5625 25.1758 78.1348 25.1113 77.7715 24.9824C77.4082 24.8535 77.0977 24.6865 76.8398 24.4814C76.582 24.2705 76.3652 24.042 76.1895 23.7959H76.0664C76.0957 24.0303 76.1221 24.291 76.1455 24.5781C76.1748 24.8594 76.1895 25.1172 76.1895 25.3516V29.3154H74.1152V15.2705H75.8027L76.0928 16.6152H76.1895C76.3711 16.3398 76.5908 16.085 76.8486 15.8506C77.1123 15.6162 77.4287 15.4316 77.7979 15.2969C78.1729 15.1562 78.6094 15.0859 79.1074 15.0859ZM78.5537 16.7734C77.9854 16.7734 77.5283 16.8877 77.1826 17.1162C76.8428 17.3389 76.5938 17.6758 76.4355 18.127C76.2832 18.5781 76.2012 19.1436 76.1895 19.8232V20.1133C76.1895 20.834 76.2627 21.4463 76.4092 21.9502C76.5615 22.4482 76.8105 22.8291 77.1562 23.0928C77.5078 23.3506 77.9824 23.4795 78.5801 23.4795C79.084 23.4795 79.5 23.3418 79.8281 23.0664C80.1621 22.791 80.4111 22.3984 80.5752 21.8887C80.7393 21.3789 80.8213 20.7783 80.8213 20.0869C80.8213 19.0381 80.6338 18.2236 80.2588 17.6436C79.8896 17.0635 79.3213 16.7734 78.5537 16.7734ZM93.9434 20.1133C93.9434 20.9219 93.8379 21.6396 93.627 22.2666C93.416 22.8936 93.1084 23.4238 92.7041 23.8574C92.2998 24.2852 91.8135 24.6133 91.2451 24.8418C90.6768 25.0645 90.0352 25.1758 89.3203 25.1758C88.6523 25.1758 88.04 25.0645 87.4834 24.8418C86.9268 24.6133 86.4434 24.2852 86.0332 23.8574C85.6289 23.4238 85.3154 22.8936 85.0928 22.2666C84.8701 21.6396 84.7588 20.9219 84.7588 20.1133C84.7588 19.041 84.9434 18.1328 85.3125 17.3887C85.6875 16.6387 86.2207 16.0674 86.9121 15.6748C87.6035 15.2822 88.4268 15.0859 89.3818 15.0859C90.2783 15.0859 91.0693 15.2822 91.7549 15.6748C92.4404 16.0674 92.9766 16.6387 93.3633 17.3887C93.75 18.1387 93.9434 19.0469 93.9434 20.1133ZM86.8857 20.1133C86.8857 20.8223 86.9707 21.4287 87.1406 21.9326C87.3164 22.4365 87.5859 22.8232 87.9492 23.0928C88.3125 23.3564 88.7812 23.4883 89.3555 23.4883C89.9297 23.4883 90.3984 23.3564 90.7617 23.0928C91.125 22.8232 91.3916 22.4365 91.5615 21.9326C91.7314 21.4287 91.8164 20.8223 91.8164 20.1133C91.8164 19.4043 91.7314 18.8037 91.5615 18.3115C91.3916 17.8135 91.125 17.4355 90.7617 17.1777C90.3984 16.9141 89.9268 16.7822 89.3467 16.7822C88.4912 16.7822 87.8672 17.0693 87.4746 17.6436C87.082 18.2178 86.8857 19.041 86.8857 20.1133ZM101.388 15.0859C102.483 15.0859 103.336 15.3701 103.945 15.9385C104.561 16.501 104.868 17.4062 104.868 18.6543V25H102.803V19.041C102.803 18.2852 102.647 17.7197 102.337 17.3447C102.026 16.9639 101.546 16.7734 100.896 16.7734C99.9521 16.7734 99.2959 17.0635 98.9268 17.6436C98.5635 18.2236 98.3818 19.0645 98.3818 20.166V25H96.3164V15.2705H97.9248L98.2148 16.5889H98.3291C98.54 16.249 98.8008 15.9707 99.1113 15.7539C99.4277 15.5312 99.7793 15.3643 100.166 15.2529C100.559 15.1416 100.966 15.0859 101.388 15.0859ZM114.299 22.2227C114.299 22.8613 114.144 23.4004 113.833 23.8398C113.522 24.2793 113.068 24.6133 112.471 24.8418C111.879 25.0645 111.152 25.1758 110.291 25.1758C109.611 25.1758 109.025 25.126 108.533 25.0264C108.047 24.9326 107.587 24.7861 107.153 24.5869V22.8027C107.616 23.0195 108.135 23.207 108.709 23.3652C109.289 23.5234 109.837 23.6025 110.353 23.6025C111.032 23.6025 111.521 23.4971 111.82 23.2861C112.119 23.0693 112.269 22.7822 112.269 22.4248C112.269 22.2139 112.207 22.0264 112.084 21.8623C111.967 21.6924 111.744 21.5195 111.416 21.3438C111.094 21.1621 110.619 20.9453 109.992 20.6934C109.377 20.4473 108.858 20.2012 108.437 19.9551C108.015 19.709 107.695 19.4131 107.479 19.0674C107.262 18.7158 107.153 18.2676 107.153 17.7227C107.153 16.8613 107.493 16.208 108.173 15.7627C108.858 15.3115 109.764 15.0859 110.889 15.0859C111.486 15.0859 112.049 15.1475 112.576 15.2705C113.109 15.3877 113.631 15.5605 114.141 15.7891L113.49 17.3447C113.051 17.1514 112.608 16.9932 112.163 16.8701C111.724 16.7412 111.275 16.6768 110.818 16.6768C110.285 16.6768 109.878 16.7588 109.597 16.9229C109.321 17.0869 109.184 17.3213 109.184 17.626C109.184 17.8545 109.251 18.0479 109.386 18.2061C109.521 18.3643 109.752 18.5225 110.08 18.6807C110.414 18.8389 110.877 19.0352 111.469 19.2695C112.049 19.4922 112.55 19.7266 112.972 19.9727C113.399 20.2129 113.728 20.5088 113.956 20.8604C114.185 21.2119 114.299 21.666 114.299 22.2227ZM118.597 15.2705V25H116.531V15.2705H118.597ZM117.577 11.5439C117.894 11.5439 118.166 11.6289 118.395 11.7988C118.629 11.9688 118.746 12.2617 118.746 12.6777C118.746 13.0879 118.629 13.3809 118.395 13.5566C118.166 13.7266 117.894 13.8115 117.577 13.8115C117.249 13.8115 116.971 13.7266 116.742 13.5566C116.52 13.3809 116.408 13.0879 116.408 12.6777C116.408 12.2617 116.52 11.9688 116.742 11.7988C116.971 11.6289 117.249 11.5439 117.577 11.5439ZM123.624 11.3242V14.6201C123.624 15.001 123.612 15.376 123.589 15.7451C123.571 16.1084 123.554 16.3926 123.536 16.5977H123.624C123.888 16.1758 124.254 15.8213 124.723 15.5342C125.197 15.2412 125.804 15.0947 126.542 15.0947C127.696 15.0947 128.625 15.5195 129.328 16.3691C130.031 17.2129 130.383 18.4639 130.383 20.1221C130.383 21.2236 130.222 22.1494 129.899 22.8994C129.577 23.6494 129.123 24.2178 128.537 24.6045C127.957 24.9854 127.274 25.1758 126.489 25.1758C125.751 25.1758 125.153 25.041 124.696 24.7715C124.245 24.4961 123.891 24.1768 123.633 23.8135H123.483L123.105 25H121.559V11.3242H123.624ZM125.997 16.7734C125.411 16.7734 124.945 16.8906 124.6 17.125C124.26 17.3594 124.014 17.7109 123.861 18.1797C123.709 18.6426 123.63 19.2314 123.624 19.9463V20.1309C123.624 21.2148 123.794 22.0439 124.134 22.6182C124.479 23.1924 125.106 23.4795 126.015 23.4795C126.735 23.4795 127.289 23.1895 127.676 22.6094C128.062 22.0234 128.256 21.1855 128.256 20.0957C128.256 18.9941 128.062 18.165 127.676 17.6084C127.295 17.0518 126.735 16.7734 125.997 16.7734ZM134.839 15.2705V25H132.773V15.2705H134.839ZM133.819 11.5439C134.136 11.5439 134.408 11.6289 134.637 11.7988C134.871 11.9688 134.988 12.2617 134.988 12.6777C134.988 13.0879 134.871 13.3809 134.637 13.5566C134.408 13.7266 134.136 13.8115 133.819 13.8115C133.491 13.8115 133.213 13.7266 132.984 13.5566C132.762 13.3809 132.65 13.0879 132.65 12.6777C132.65 12.2617 132.762 11.9688 132.984 11.7988C133.213 11.6289 133.491 11.5439 133.819 11.5439ZM139.875 25H137.801V11.3242H139.875V25ZM144.894 15.2705V25H142.828V15.2705H144.894ZM143.874 11.5439C144.19 11.5439 144.463 11.6289 144.691 11.7988C144.926 11.9688 145.043 12.2617 145.043 12.6777C145.043 13.0879 144.926 13.3809 144.691 13.5566C144.463 13.7266 144.19 13.8115 143.874 13.8115C143.546 13.8115 143.268 13.7266 143.039 13.5566C142.816 13.3809 142.705 13.0879 142.705 12.6777C142.705 12.2617 142.816 11.9688 143.039 11.7988C143.268 11.6289 143.546 11.5439 143.874 11.5439ZM151.477 23.5059C151.746 23.5059 152.013 23.4824 152.276 23.4355C152.54 23.3828 152.78 23.3213 152.997 23.251V24.8154C152.769 24.915 152.473 25 152.109 25.0703C151.746 25.1406 151.368 25.1758 150.976 25.1758C150.425 25.1758 149.93 25.085 149.49 24.9033C149.051 24.7158 148.702 24.3965 148.444 23.9453C148.187 23.4941 148.058 22.8701 148.058 22.0732V16.8438H146.73V15.9209L148.154 15.1914L148.831 13.1084H150.132V15.2705H152.918V16.8438H150.132V22.0469C150.132 22.5391 150.255 22.9053 150.501 23.1455C150.747 23.3857 151.072 23.5059 151.477 23.5059ZM153.507 15.2705H155.757L157.752 20.8252C157.84 21.0771 157.919 21.3262 157.989 21.5723C158.065 21.8125 158.13 22.0498 158.183 22.2842C158.241 22.5186 158.288 22.7529 158.323 22.9873H158.376C158.435 22.6826 158.517 22.3428 158.622 21.9678C158.733 21.5869 158.856 21.2061 158.991 20.8252L160.907 15.2705H163.131L158.956 26.3359C158.716 26.9688 158.42 27.5078 158.068 27.9531C157.723 28.4043 157.312 28.7441 156.838 28.9727C156.363 29.207 155.821 29.3242 155.212 29.3242C154.919 29.3242 154.664 29.3066 154.447 29.2715C154.23 29.2422 154.046 29.21 153.894 29.1748V27.5225C154.017 27.5518 154.172 27.5781 154.359 27.6016C154.547 27.625 154.74 27.6367 154.939 27.6367C155.309 27.6367 155.628 27.5635 155.897 27.417C156.167 27.2705 156.396 27.0625 156.583 26.793C156.771 26.5293 156.926 26.2275 157.049 25.8877L157.392 24.9736L153.507 15.2705Z" fill="#008000"/>
<defs>
<filter id="filter0_d_1_32" x="0" y="0" width="206" height="58" filterUnits="userSpaceOnUse" color-interpolation-filters="sRGB">
<feFlood flood-opacity="0" result="BackgroundImageFix"/>
<feColorMatrix in="SourceAlpha" type="matrix" values="0 0 0 0 0 0 0 0 0 0 0 0 0 0 0 0 0 0 127 0" result="hardAlpha"/>
<feOffset dy="4"/>
<feGaussianBlur stdDeviation="2"/>
<feComposite in2="hardAlpha" operator="out"/>
<feColorMatrix type="matrix" values="0 0 0 0 0 0 0 0 0 0 0 0 0 0 0 0 0 0 0.25 0"/>
<feBlend mode="normal" in2="BackgroundImageFix" result="effect1_dropShadow_1_32"/>
<feBlend mode="normal" in="SourceGraphic" in2="effect1_dropShadow_1_32" result="shape"/>
</filter>
</defs>
</svg>
