<svg width="50" height="50" viewBox="0 0 50 50" fill="none" xmlns="http://www.w3.org/2000/svg">
<path d="M25 31.25C28.4518 31.25 31.25 28.4518 31.25 25C31.25 21.5482 28.4518 18.75 25 18.75C21.5482 18.75 18.75 21.5482 18.75 25C18.75 28.4518 21.5482 31.25 25 31.25Z" stroke="white" stroke-opacity="0.5" stroke-width="2" stroke-linecap="round" stroke-linejoin="round"/>
<path d="M40.4167 31.2497C40.1394 31.878 40.0567 32.5751 40.1792 33.2509C40.3017 33.9267 40.6239 34.5503 41.1042 35.0413L41.2292 35.1663C41.6166 35.5533 41.9239 36.0128 42.1336 36.5187C42.3433 37.0245 42.4512 37.5667 42.4512 38.1143C42.4512 38.6618 42.3433 39.204 42.1336 39.7098C41.9239 40.2157 41.6166 40.6752 41.2292 41.0622C40.8422 41.4496 40.3827 41.7569 39.8769 41.9666C39.371 42.1763 38.8289 42.2842 38.2813 42.2842C37.7337 42.2842 37.1915 42.1763 36.6857 41.9666C36.1799 41.7569 35.7203 41.4496 35.3334 41.0622L35.2084 40.9372C34.7174 40.4569 34.0938 40.1347 33.4179 40.0122C32.7421 39.8896 32.0451 39.9723 31.4167 40.2497C30.8005 40.5138 30.275 40.9523 29.9048 41.5112C29.5347 42.0701 29.336 42.7251 29.3334 43.3955V43.7497C29.3334 44.8547 28.8944 45.9145 28.113 46.696C27.3316 47.4774 26.2718 47.9163 25.1667 47.9163C24.0616 47.9163 23.0018 47.4774 22.2204 46.696C21.439 45.9145 21 44.8547 21 43.7497V43.5622C20.9839 42.8726 20.7607 42.2038 20.3594 41.6428C19.9582 41.0818 19.3974 40.6544 18.75 40.4163C18.1217 40.139 17.4246 40.0563 16.7488 40.1788C16.073 40.3014 15.4494 40.6236 14.9584 41.1038L14.8334 41.2288C14.4464 41.6162 13.9869 41.9236 13.481 42.1333C12.9752 42.3429 12.433 42.4509 11.8855 42.4509C11.3379 42.4509 10.7957 42.3429 10.2899 42.1333C9.78405 41.9236 9.32451 41.6162 8.93754 41.2288C8.55014 40.8419 8.24281 40.3823 8.03312 39.8765C7.82344 39.3707 7.71551 38.8285 7.71551 38.2809C7.71551 37.7334 7.82344 37.1912 8.03312 36.6853C8.24281 36.1795 8.55014 35.72 8.93754 35.333L9.06254 35.208C9.54283 34.717 9.86501 34.0934 9.98755 33.4176C10.1101 32.7417 10.0274 32.0447 9.75004 31.4163C9.48595 30.8002 9.04745 30.2746 8.48851 29.9045C7.92957 29.5343 7.2746 29.3357 6.60421 29.333H6.25004C5.14497 29.333 4.08516 28.894 3.30376 28.1126C2.52236 27.3312 2.08337 26.2714 2.08337 25.1663C2.08337 24.0613 2.52236 23.0015 3.30376 22.2201C4.08516 21.4387 5.14497 20.9997 6.25004 20.9997H6.43754C7.12711 20.9835 7.79588 20.7603 8.35691 20.3591C8.91794 19.9578 9.34528 19.397 9.58337 18.7497C9.8607 18.1213 9.94342 17.4243 9.82088 16.7484C9.69834 16.0726 9.37616 15.449 8.89587 14.958L8.77087 14.833C8.38347 14.446 8.07614 13.9865 7.86646 13.4807C7.65677 12.9748 7.54885 12.4327 7.54885 11.8851C7.54885 11.3375 7.65677 10.7953 7.86646 10.2895C8.07614 9.78368 8.38347 9.32415 8.77087 8.93717C9.15784 8.54977 9.61738 8.24244 10.1232 8.03276C10.629 7.82307 11.1712 7.71515 11.7188 7.71515C12.2664 7.71515 12.8085 7.82307 13.3144 8.03276C13.8202 8.24244 14.2797 8.54977 14.6667 8.93717L14.7917 9.06217C15.2827 9.54246 15.9063 9.86464 16.5821 9.98718C17.258 10.1097 17.955 10.027 18.5834 9.74967H18.75C19.3662 9.48558 19.8917 9.04708 20.2619 8.48814C20.6321 7.92921 20.8307 7.27423 20.8334 6.60384V6.24967C20.8334 5.14461 21.2724 4.0848 22.0538 3.3034C22.8352 2.52199 23.895 2.08301 25 2.08301C26.1051 2.08301 27.1649 2.52199 27.9463 3.3034C28.7277 4.0848 29.1667 5.14461 29.1667 6.24967V6.43717C29.1694 7.10756 29.368 7.76254 29.7382 8.32148C30.1083 8.88042 30.6339 9.31892 31.25 9.58301C31.8784 9.86033 32.5754 9.94306 33.2513 9.82052C33.9271 9.69798 34.5507 9.37579 35.0417 8.89551L35.1667 8.77051C35.5537 8.38311 36.0132 8.07578 36.519 7.86609C37.0249 7.65641 37.5671 7.54848 38.1146 7.54848C38.6622 7.54848 39.2044 7.65641 39.7102 7.86609C40.216 8.07578 40.6756 8.38311 41.0625 8.77051C41.4499 9.15748 41.7573 9.61701 41.967 10.1228C42.1766 10.6287 42.2846 11.1709 42.2846 11.7184C42.2846 12.266 42.1766 12.8082 41.967 13.314C41.7573 13.8198 41.4499 14.2794 41.0625 14.6663L40.9375 14.7913C40.4573 15.2823 40.1351 15.906 40.0125 16.5818C39.89 17.2576 39.9727 17.9546 40.25 18.583V18.7497C40.5141 19.3659 40.9526 19.8914 41.5116 20.2615C42.0705 20.6317 42.7255 20.8303 43.3959 20.833H43.75C44.8551 20.833 45.9149 21.272 46.6963 22.0534C47.4777 22.8348 47.9167 23.8946 47.9167 24.9997C47.9167 26.1047 47.4777 27.1645 46.6963 27.946C45.9149 28.7274 44.8551 29.1663 43.75 29.1663H43.5625C42.8922 29.169 42.2372 29.3677 41.6782 29.7378C41.1193 30.108 40.6808 30.6335 40.4167 31.2497V31.2497Z" stroke="white" stroke-opacity="0.5" stroke-width="2" stroke-linecap="round" stroke-linejoin="round"/>
</svg>
